<?xml version="1.0" encoding="UTF-8"?>
<svg id="uuid-8738b90f-6b04-47fe-824f-d0534e08f462" data-name="Layer 1" xmlns="http://www.w3.org/2000/svg" viewBox="0 0 498 52.8">
  <g>
    <g>
      <polygon points="43.3 24.4 31.5 24.4 31.5 11.8 11.8 11.8 11.8 22.5 0 22.5 0 0 43.3 0 43.3 24.4" style="fill: #075985;"/>
      <polygon points="74.9 52.8 31.5 52.8 31.5 28.4 43.3 28.4 43.3 41 63 41 63 30.3 74.9 30.3 74.9 52.8" style="fill: #075985;"/>
    </g>
    <g>
      <polygon points="63 0 47.3 0 47.3 11.8 63 11.8 63 22.5 74.9 22.5 74.9 11.8 74.9 0 63 0" style="fill: #075985;"/>
      <polygon points="11.8 30.3 0 30.3 0 41 0 52.8 11.8 52.8 27.6 52.8 27.6 41 11.8 41 11.8 30.3" style="fill: #075985;"/>
    </g>
  </g>
  <g>
    <path d="M114.4,17.4c-1.5-.6-3.3-.9-5.2-.9s-4.8,.5-7,1.5c-.3,.1-.6,.3-.8,.4V6.7h-10.2V45.9h10.1l.2-20.2c.1-.2,.5-.4,1.2-.6,.7-.2,1.4-.3,2.1-.3,1.5,0,2.6,.3,3.4,.9,.8,.6,1.2,1.7,1.2,3.2v17h10.2V26.5c0-2.6-.5-4.6-1.4-6.1-.9-1.4-2.1-2.4-3.7-3Z" style="fill: #075985;"/>
    <path d="M147.8,17.8c-2.3-1-5-1.5-8.3-1.5-5,0-8.7,1.1-11.2,3.4-2.5,2.3-3.8,6.2-3.8,11.7s1.3,8.9,3.8,11.5c2.5,2.5,6.3,3.8,11.2,3.8s8.6-1.3,11.2-3.8c2.6-2.5,3.9-6.4,3.9-11.5s-.6-6.6-1.8-8.9c-1.2-2.2-2.9-3.8-5.1-4.8Zm-3.8,17.9c-.4,1.1-1,1.9-1.8,2.4-.8,.5-1.7,.8-2.7,.8-1.6,0-2.8-.6-3.7-1.7-.8-1.1-1.3-3-1.3-5.7s.2-3.6,.6-4.6c.4-1,.9-1.8,1.7-2.1,.7-.4,1.6-.6,2.7-.6s1.9,.2,2.7,.6c.8,.4,1.4,1.1,1.8,2.1,.4,1,.6,2.6,.6,4.6s-.2,3.1-.6,4.2Z" style="fill: #075985;"/>
    <path d="M179.1,30.5c-.9-.6-1.8-1-2.8-1.3-1-.3-1.9-.5-2.9-.8-.7-.2-1.4-.4-1.9-.6-.6-.2-1-.4-1.4-.8-.4-.3-.5-.8-.5-1.3s.2-1,.6-1.3c.4-.4,1.3-.6,2.7-.6s3.1,.3,4.4,1c1.3,.7,2.6,1.3,3.8,2v-7.6c-1.1-.7-2.3-1.3-3.7-1.8-1.4-.4-3.4-.7-6-.8-1.3,0-2.7,.1-4.1,.4-1.4,.3-2.8,.9-4,1.7-1.3,.8-2.3,1.8-3,3.1-.8,1.3-1.1,2.9-1.1,4.9s.2,2.6,.6,3.6c.4,1,.9,1.9,1.5,2.6,.6,.7,1.4,1.3,2.2,1.7,.8,.4,1.6,.7,2.4,.8,1,.1,2,.3,2.9,.6s1.6,.5,2.2,.8c.6,.3,.8,.7,.8,1.1s-.1,.7-.4,1c-.3,.3-1,.5-2,.5s-2.7-.2-4-.6c-1.3-.4-2.4-.9-3.4-1.4-1-.6-1.8-1.1-2.4-1.6v8.6c1.2,.4,2.5,.8,3.9,1.3,1.5,.4,3.2,.7,5.2,.7s4.7-.3,6.7-.9c2.1-.6,3.7-1.6,5-2.9,1.2-1.4,1.9-3.3,2-5.7,0-1.8-.3-3.2-.8-4.3-.5-1.1-1.2-1.9-2.1-2.5Z" style="fill: #075985;"/>
    <path d="M209.4,19c-1.1-.7-2.2-1.3-3.4-1.7-1.2-.4-2.3-.6-3.4-.7-1.1-.1-2-.2-2.7-.2-2.8,0-5.3,.3-7.4,.8-2.1,.6-3.6,1.1-4.4,1.7v8.8c.9-.8,2.2-1.5,3.9-2.2,1.7-.7,3.4-1,5.1-1s3.3,.3,4.3,1c1,.7,1.5,1.8,1.5,3.3v1.1c-.2,0-.3-.2-.5-.3-1-.5-2.1-.9-3.3-1.2-1.2-.3-2.4-.4-3.6-.4-2.4,0-4.3,.4-5.8,1.1-1.5,.8-2.5,1.8-3.2,3-.7,1.3-1,2.6-1,4.2s.3,3.6,1,4.9c.6,1.3,1.5,2.4,2.7,3.1,1.2,.8,2.6,1.3,4.2,1.7,1.6,.3,3.4,.5,5.3,.5,3.2,0,5.8-.3,7.9-.8,2.1-.5,3.7-1.3,4.7-2.3,1-1,1.6-2.2,1.6-3.7v-13.3c0-1.9-.3-3.5-.9-4.8-.7-1.2-1.5-2.2-2.6-3Zm-6.5,19.4c0,.6-.3,1-.8,1.2-.6,.2-1.7,.3-3.4,.3s-1.1-.1-1.5-.4c-.5-.3-.8-.6-1.1-1.1-.3-.4-.4-.9-.4-1.3,0-.9,.3-1.6,1-2,.7-.4,1.8-.6,3.4-.6s1.7,0,2.5,.3c.1,0,.2,0,.4,.1v3.5Z" style="fill: #075985;"/>
    <path d="M259.5,17.4c-1.8-.6-3.9-.9-6.3-.9s-3.5,.3-5.5,.8c-1.2,.3-2.4,.7-3.6,1.1-.6-.4-1.3-.8-2.1-1-1.8-.6-3.9-.9-6.3-.9s-2.7,.1-4.3,.3-3.1,.5-4.7,.8c-1.5,.3-2.9,.7-4.2,1.1-1.2,.4-2.2,.8-2.8,1.1v26h10.2V25.7c.1-.2,.4-.4,.9-.6,.5-.2,1.1-.3,1.8-.3s1.4,0,2,.2c.6,.1,1.1,.4,1.5,.7,.4,.3,.7,.7,.9,1.3,.2,.5,.3,1.2,.3,1.9v17h10.2V26.5c0-.3,0-.5,0-.8h0c.1-.2,.4-.4,.9-.6,.5-.2,1.1-.3,1.8-.3s1.4,0,2,.2c.6,.1,1.1,.4,1.5,.7,.4,.3,.7,.7,.9,1.3,.2,.5,.3,1.2,.3,1.9v17h10.2V26.5c0-2.6-.5-4.6-1.4-6.1-1-1.4-2.3-2.4-4.1-3Z" style="fill: #075985;"/>
    <path d="M297.5,31.2c0,3.5-.8,6.1-2.4,7.8-1.6,1.7-3.9,2.5-6.9,2.5s-5.4-.8-6.9-2.5c-1.5-1.7-2.3-4.3-2.3-7.8V8.6h-6.3V31.2c0,5.1,1.3,9,4,11.6,2.7,2.6,6.6,3.9,11.6,3.9s5.8-.6,8-1.7c2.2-1.1,4-2.9,5.2-5.2,1.2-2.3,1.8-5.2,1.8-8.6V8.6h-5.9V31.2Z" style="fill: #0284c7;"/>
    <path d="M349,18.3c-1.6-.7-3.8-1.1-6.4-1.1s-3,.2-4.6,.5c-1.5,.3-3,.8-4.5,1.5-.1,0-.3,.1-.4,.2-.5-.4-1.1-.8-1.7-1.1-1.6-.7-3.8-1.1-6.4-1.1s-2.3,0-3.5,.2c-1.2,.1-2.4,.4-3.5,.6-1.2,.3-2.2,.6-3.3,.9-1,.4-1.9,.7-2.8,1.1v25.8h5.9V23.3c.9-.3,1.9-.6,2.9-.8,1-.2,2-.3,3-.3s2.6,.2,3.4,.5c.9,.3,1.5,.8,2,1.4,.5,.6,.8,1.2,1,1.9,.2,.7,.3,1.4,.3,2.1v17.8h5.9V27.3c0-1.3-.2-2.5-.4-3.5,.8-.5,1.6-.8,2.4-1.1,1-.3,2-.4,3-.4s2.6,.2,3.4,.5c.9,.3,1.5,.8,2,1.4,.5,.6,.8,1.2,1,1.9,.2,.7,.3,1.4,.3,2.1v17.8h5.9V27.3c0-2.3-.4-4.2-1.2-5.7-.8-1.5-2-2.6-3.7-3.4Z" style="fill: #0284c7;"/>
    <path d="M375.2,17.2c-.8,0-1.7,.1-2.8,.3-1.1,.2-2.2,.5-3.2,.9-.4,.1-.8,.3-1.1,.5V6.6h-5.8V40.4c0,1.3,.3,2.4,1,3.2,.7,.8,1.5,1.5,2.7,1.9,1.1,.5,2.4,.8,3.8,1,1.4,.2,2.9,.3,4.4,.3s3.4-.2,5.1-.7c1.7-.4,3.2-1.2,4.5-2.3,1.3-1.1,2.4-2.6,3.2-4.6,.8-2,1.2-4.5,1.2-7.6,0-4.5-1.1-8.1-3.2-10.6-2.1-2.5-5.3-3.8-9.6-3.8Zm6.1,19.6c-.4,1.5-1.3,2.7-2.5,3.6-1.2,.9-2.9,1.3-5.1,1.3s-1.8,0-2.7-.2c-.9-.1-1.6-.4-2.2-.8-.6-.4-.9-1-.9-1.7v-15.1c1-.6,2-1,3.2-1.2,1.1-.3,2.2-.4,3.2-.4,1.8,0,3.2,.4,4.3,1.1,1.1,.7,2,1.8,2.5,3.2,.6,1.4,.8,3.2,.8,5.3s-.2,3.5-.7,5Z" style="fill: #0284c7;"/>
    <path d="M415.6,20.2c-.7-.7-1.6-1.3-2.5-1.7-.9-.4-1.9-.7-3-1-1.1-.2-2.1-.3-3.2-.3-2.1,0-4.2,.2-6.2,.6-2,.4-3.5,1-4.6,1.7v5.5c1.1-.9,2.5-1.6,4.1-2.1,1.7-.5,3.3-.8,4.9-.8s3.9,.5,5.1,1.4c1.2,.9,1.8,2.4,1.8,4.3v2.7c-.4-.3-.9-.5-1.4-.7-.9-.4-1.9-.7-3.1-.9-1.1-.2-2.4-.3-3.8-.3-2.1,0-4,.3-5.5,1-1.5,.7-2.7,1.7-3.5,3-.8,1.3-1.2,3.1-1.2,5.1s.3,3.2,1,4.4c.7,1.2,1.5,2.1,2.6,2.8,1.1,.7,2.3,1.1,3.7,1.4,1.3,.3,2.7,.4,4.2,.4,2.5,0,4.7-.2,6.6-.5,1.9-.4,3.5-1,4.6-2,1.1-1,1.7-2.4,1.7-4.2v-13.4c0-1.4-.2-2.6-.6-3.7-.4-1-1-1.9-1.7-2.7Zm-3.5,19.4c0,1.1-.5,1.8-1.6,2.1-1,.3-2.7,.4-4.9,.4s-2-.2-3-.5c-1-.3-1.7-.8-2.4-1.5-.6-.7-1-1.6-1-2.7s.5-2.6,1.7-3.4c1.1-.7,2.7-1.1,4.8-1.1s3.1,.2,4.5,.6c.7,.2,1.3,.4,1.8,.6v5.4Z" style="fill: #0284c7;"/>
    <path d="M444.9,18.7c-.4-.2-.8-.3-1.2-.5-1.1-.4-2.1-.6-3.2-.8-1-.2-1.9-.3-2.6-.3-4.4,0-7.7,1.3-9.8,3.9-2.2,2.6-3.2,6.1-3.2,10.5s.4,5.7,1.2,7.7,1.8,3.5,3.2,4.6c1.3,1.1,2.8,1.9,4.5,2.3,1.6,.4,3.3,.6,5,.6s2.8-.1,4.2-.4c1.4-.3,2.7-.7,3.9-1.2,1.2-.5,2.2-1.2,2.9-2.1,.7-.9,1.1-1.9,1.1-3V6.1h-5.8v12.7Zm0,20.7c0,.7-.6,1.2-1.8,1.6-1.2,.4-2.6,.6-4.3,.6s-3.8-.4-5-1.3c-1.2-.9-2-2.1-2.4-3.6s-.7-3.2-.7-5.1,.3-3.8,.8-5.2c.6-1.4,1.4-2.5,2.6-3.2,1.2-.7,2.7-1.1,4.5-1.1s2.1,.1,3.1,.4c1.1,.3,2.1,.7,3.1,1.2v15.6Z" style="fill: #0284c7;"/>
    <path d="M477.6,18.7c-.4-.2-.8-.3-1.2-.5-1.1-.4-2.1-.6-3.2-.8-1-.2-1.9-.3-2.6-.3-4.4,0-7.7,1.3-9.8,3.9-2.2,2.6-3.2,6.1-3.2,10.5s.4,5.7,1.2,7.7,1.8,3.5,3.2,4.6c1.3,1.1,2.8,1.9,4.5,2.3,1.6,.4,3.3,.6,5,.6s2.8-.1,4.2-.4c1.4-.3,2.7-.7,3.9-1.2,1.2-.5,2.2-1.2,2.9-2.1,.7-.9,1.1-1.9,1.1-3V6.1h-5.8v12.7Zm0,20.7c0,.7-.6,1.2-1.8,1.6-1.2,.4-2.6,.6-4.3,.6s-3.8-.4-5-1.3c-1.2-.9-2-2.1-2.4-3.6s-.7-3.2-.7-5.1,.3-3.8,.8-5.2c.6-1.4,1.4-2.5,2.6-3.2,1.2-.7,2.7-1.1,4.5-1.1s2.1,.1,3.1,.4c1.1,.3,2.1,.7,3.1,1.2v15.6Z" style="fill: #0284c7;"/>
    <rect x="491.7" y="8" width="6.3" height="5.3" style="fill: #0284c7;"/>
    <polygon points="491.9 18 491.9 45.9 497.8 45.9 497.8 18 491.9 18" style="fill: #0284c7;"/>
  </g>
</svg>