<?xml version="1.0" encoding="utf-8"?>
<!-- Generator: Adobe Illustrator 27.0.0, SVG Export Plug-In . SVG Version: 6.00 Build 0)  -->
<svg version="1.1" id="uuid-8738b90f-6b04-47fe-824f-d0534e08f462"
	 xmlns="http://www.w3.org/2000/svg" xmlns:xlink="http://www.w3.org/1999/xlink" x="0px" y="0px" viewBox="0 0 498 52.8"
	 style="enable-background:new 0 0 498 52.8;" xml:space="preserve">
<style type="text/css">
	.st0{fill:#334155;}
</style>
<g>
	<g>
		<polygon class="st0" points="43.3,24.4 31.5,24.4 31.5,11.8 11.8,11.8 11.8,22.5 0,22.5 0,0 43.3,0 		"/>
		<polygon class="st0" points="74.9,52.8 31.5,52.8 31.5,28.4 43.3,28.4 43.3,41 63,41 63,30.3 74.9,30.3 		"/>
	</g>
	<g>
		<polygon class="st0" points="63,0 47.3,0 47.3,11.8 63,11.8 63,22.5 74.9,22.5 74.9,11.8 74.9,0 		"/>
		<polygon class="st0" points="11.8,30.3 0,30.3 0,41 0,52.8 11.8,52.8 27.6,52.8 27.6,41 11.8,41 		"/>
	</g>
</g>
<g>
	<path class="st0" d="M114.4,17.4c-1.5-0.6-3.3-0.9-5.2-0.9s-4.8,0.5-7,1.5c-0.3,0.1-0.6,0.3-0.8,0.4V6.7H91.2v39.2h10.1l0.2-20.2
		c0.1-0.2,0.5-0.4,1.2-0.6s1.4-0.3,2.1-0.3c1.5,0,2.6,0.3,3.4,0.9s1.2,1.7,1.2,3.2v17h10.2V26.5c0-2.6-0.5-4.6-1.4-6.1
		C117.3,19,116.1,18,114.4,17.4L114.4,17.4z"/>
	<path class="st0" d="M147.8,17.8c-2.3-1-5-1.5-8.3-1.5c-5,0-8.7,1.1-11.2,3.4s-3.8,6.2-3.8,11.7s1.3,8.9,3.8,11.5
		c2.5,2.5,6.3,3.8,11.2,3.8s8.6-1.3,11.2-3.8c2.6-2.5,3.9-6.4,3.9-11.5s-0.6-6.6-1.8-8.9c-1.2-2.2-2.9-3.8-5.1-4.8L147.8,17.8z
		 M144,35.7c-0.4,1.1-1,1.9-1.8,2.4s-1.7,0.8-2.7,0.8c-1.6,0-2.8-0.6-3.7-1.7c-0.8-1.1-1.3-3-1.3-5.7s0.2-3.6,0.6-4.6
		c0.4-1,0.9-1.8,1.7-2.1c0.7-0.4,1.6-0.6,2.7-0.6s1.9,0.2,2.7,0.6s1.4,1.1,1.8,2.1c0.4,1,0.6,2.6,0.6,4.6S144.4,34.6,144,35.7z"/>
	<path class="st0" d="M179.1,30.5c-0.9-0.6-1.8-1-2.8-1.3s-1.9-0.5-2.9-0.8c-0.7-0.2-1.4-0.4-1.9-0.6c-0.6-0.2-1-0.4-1.4-0.8
		c-0.4-0.3-0.5-0.8-0.5-1.3s0.2-1,0.6-1.3c0.4-0.4,1.3-0.6,2.7-0.6s3.1,0.3,4.4,1c1.3,0.7,2.6,1.3,3.8,2v-7.6
		c-1.1-0.7-2.3-1.3-3.7-1.8c-1.4-0.4-3.4-0.7-6-0.8c-1.3,0-2.7,0.1-4.1,0.4c-1.4,0.3-2.8,0.9-4,1.7c-1.3,0.8-2.3,1.8-3,3.1
		c-0.8,1.3-1.1,2.9-1.1,4.9s0.2,2.6,0.6,3.6c0.4,1,0.9,1.9,1.5,2.6s1.4,1.3,2.2,1.7s1.6,0.7,2.4,0.8c1,0.1,2,0.3,2.9,0.6
		s1.6,0.5,2.2,0.8c0.6,0.3,0.8,0.7,0.8,1.1s-0.1,0.7-0.4,1c-0.3,0.3-1,0.5-2,0.5s-2.7-0.2-4-0.6c-1.3-0.4-2.4-0.9-3.4-1.4
		c-1-0.6-1.8-1.1-2.4-1.6v8.6c1.2,0.4,2.5,0.8,3.9,1.3c1.5,0.4,3.2,0.7,5.2,0.7s4.7-0.3,6.7-0.9c2.1-0.6,3.7-1.6,5-2.9
		c1.2-1.4,1.9-3.3,2-5.7c0-1.8-0.3-3.2-0.8-4.3c-0.5-1.1-1.2-1.9-2.1-2.5L179.1,30.5z"/>
	<path class="st0" d="M209.4,19c-1.1-0.7-2.2-1.3-3.4-1.7c-1.2-0.4-2.3-0.6-3.4-0.7c-1.1-0.1-2-0.2-2.7-0.2c-2.8,0-5.3,0.3-7.4,0.8
		c-2.1,0.6-3.6,1.1-4.4,1.7v8.8c0.9-0.8,2.2-1.5,3.9-2.2s3.4-1,5.1-1s3.3,0.3,4.3,1s1.5,1.8,1.5,3.3v1.1c-0.2,0-0.3-0.2-0.5-0.3
		c-1-0.5-2.1-0.9-3.3-1.2c-1.2-0.3-2.4-0.4-3.6-0.4c-2.4,0-4.3,0.4-5.8,1.1c-1.5,0.8-2.5,1.8-3.2,3c-0.7,1.3-1,2.6-1,4.2
		s0.3,3.6,1,4.9c0.6,1.3,1.5,2.4,2.7,3.1c1.2,0.8,2.6,1.3,4.2,1.7c1.6,0.3,3.4,0.5,5.3,0.5c3.2,0,5.8-0.3,7.9-0.8
		c2.1-0.5,3.7-1.3,4.7-2.3s1.6-2.2,1.6-3.7V26.4c0-1.9-0.3-3.5-0.9-4.8c-0.7-1.2-1.5-2.2-2.6-3L209.4,19z M202.9,38.4
		c0,0.6-0.3,1-0.8,1.2c-0.6,0.2-1.7,0.3-3.4,0.3s-1.1-0.1-1.5-0.4c-0.5-0.3-0.8-0.6-1.1-1.1c-0.3-0.4-0.4-0.9-0.4-1.3
		c0-0.9,0.3-1.6,1-2s1.8-0.6,3.4-0.6s1.7,0,2.5,0.3c0.1,0,0.2,0,0.4,0.1L202.9,38.4L202.9,38.4z"/>
	<path class="st0" d="M259.5,17.4c-1.8-0.6-3.9-0.9-6.3-0.9s-3.5,0.3-5.5,0.8c-1.2,0.3-2.4,0.7-3.6,1.1c-0.6-0.4-1.3-0.8-2.1-1
		c-1.8-0.6-3.9-0.9-6.3-0.9s-2.7,0.1-4.3,0.3s-3.1,0.5-4.7,0.8c-1.5,0.3-2.9,0.7-4.2,1.1c-1.2,0.4-2.2,0.8-2.8,1.1v26h10.2V25.7
		c0.1-0.2,0.4-0.4,0.9-0.6s1.1-0.3,1.8-0.3s1.4,0,2,0.2c0.6,0.1,1.1,0.4,1.5,0.7c0.4,0.3,0.7,0.7,0.9,1.3c0.2,0.5,0.3,1.2,0.3,1.9
		v17h10.2V26.5c0-0.3,0-0.5,0-0.8l0,0c0.1-0.2,0.4-0.4,0.9-0.6s1.1-0.3,1.8-0.3s1.4,0,2,0.2c0.6,0.1,1.1,0.4,1.5,0.7
		c0.4,0.3,0.7,0.7,0.9,1.3c0.2,0.5,0.3,1.2,0.3,1.9v17h10.2V26.5c0-2.6-0.5-4.6-1.4-6.1C262.7,19,261.4,18,259.5,17.4L259.5,17.4z"
		/>
	<path class="st0" d="M297.5,31.2c0,3.5-0.8,6.1-2.4,7.8s-3.9,2.5-6.9,2.5s-5.4-0.8-6.9-2.5s-2.3-4.3-2.3-7.8V8.6h-6.3v22.6
		c0,5.1,1.3,9,4,11.6c2.7,2.6,6.6,3.9,11.6,3.9s5.8-0.6,8-1.7c2.2-1.1,4-2.9,5.2-5.2s1.8-5.2,1.8-8.6V8.6h-5.9L297.5,31.2
		L297.5,31.2z"/>
	<path class="st0" d="M349,18.3c-1.6-0.7-3.8-1.1-6.4-1.1s-3,0.2-4.6,0.5c-1.5,0.3-3,0.8-4.5,1.5c-0.1,0-0.3,0.1-0.4,0.2
		c-0.5-0.4-1.1-0.8-1.7-1.1c-1.6-0.7-3.8-1.1-6.4-1.1s-2.3,0-3.5,0.2c-1.2,0.1-2.4,0.4-3.5,0.6c-1.2,0.3-2.2,0.6-3.3,0.9
		c-1,0.4-1.9,0.7-2.8,1.1v25.8h5.9V23.3c0.9-0.3,1.9-0.6,2.9-0.8c1-0.2,2-0.3,3-0.3s2.6,0.2,3.4,0.5c0.9,0.3,1.5,0.8,2,1.4
		s0.8,1.2,1,1.9c0.2,0.7,0.3,1.4,0.3,2.1v17.8h5.9V27.3c0-1.3-0.2-2.5-0.4-3.5c0.8-0.5,1.6-0.8,2.4-1.1c1-0.3,2-0.4,3-0.4
		s2.6,0.2,3.4,0.5c0.9,0.3,1.5,0.8,2,1.4s0.8,1.2,1,1.9c0.2,0.7,0.3,1.4,0.3,2.1V46h5.9V27.3c0-2.3-0.4-4.2-1.2-5.7
		c-0.8-1.5-2-2.6-3.7-3.4L349,18.3z"/>
	<path class="st0" d="M375.2,17.2c-0.8,0-1.7,0.1-2.8,0.3c-1.1,0.2-2.2,0.5-3.2,0.9c-0.4,0.1-0.8,0.3-1.1,0.5V6.6h-5.8v33.8
		c0,1.3,0.3,2.4,1,3.2s1.5,1.5,2.7,1.9c1.1,0.5,2.4,0.8,3.8,1s2.9,0.3,4.4,0.3s3.4-0.2,5.1-0.7c1.7-0.4,3.2-1.2,4.5-2.3
		s2.4-2.6,3.2-4.6c0.8-2,1.2-4.5,1.2-7.6c0-4.5-1.1-8.1-3.2-10.6s-5.3-3.8-9.6-3.8L375.2,17.2z M381.3,36.8
		c-0.4,1.5-1.3,2.7-2.5,3.6c-1.2,0.9-2.9,1.3-5.1,1.3s-1.8,0-2.7-0.2c-0.9-0.1-1.6-0.4-2.2-0.8c-0.6-0.4-0.9-1-0.9-1.7V23.9
		c1-0.6,2-1,3.2-1.2c1.1-0.3,2.2-0.4,3.2-0.4c1.8,0,3.2,0.4,4.3,1.1c1.1,0.7,2,1.8,2.5,3.2c0.6,1.4,0.8,3.2,0.8,5.3s-0.2,3.5-0.7,5
		L381.3,36.8z"/>
	<path class="st0" d="M415.6,20.2c-0.7-0.7-1.6-1.3-2.5-1.7c-0.9-0.4-1.9-0.7-3-1c-1.1-0.2-2.1-0.3-3.2-0.3c-2.1,0-4.2,0.2-6.2,0.6
		s-3.5,1-4.6,1.7V25c1.1-0.9,2.5-1.6,4.1-2.1c1.7-0.5,3.3-0.8,4.9-0.8s3.9,0.5,5.1,1.4s1.8,2.4,1.8,4.3v2.7
		c-0.4-0.3-0.9-0.5-1.4-0.7c-0.9-0.4-1.9-0.7-3.1-0.9c-1.1-0.2-2.4-0.3-3.8-0.3c-2.1,0-4,0.3-5.5,1s-2.7,1.7-3.5,3
		c-0.8,1.3-1.2,3.1-1.2,5.1s0.3,3.2,1,4.4s1.5,2.1,2.6,2.8s2.3,1.1,3.7,1.4c1.3,0.3,2.7,0.4,4.2,0.4c2.5,0,4.7-0.2,6.6-0.5
		c1.9-0.4,3.5-1,4.6-2s1.7-2.4,1.7-4.2V26.6c0-1.4-0.2-2.6-0.6-3.7C416.9,21.9,416.3,21,415.6,20.2z M412.1,39.6
		c0,1.1-0.5,1.8-1.6,2.1c-1,0.3-2.7,0.4-4.9,0.4s-2-0.2-3-0.5s-1.7-0.8-2.4-1.5c-0.6-0.7-1-1.6-1-2.7s0.5-2.6,1.7-3.4
		c1.1-0.7,2.7-1.1,4.8-1.1s3.1,0.2,4.5,0.6c0.7,0.2,1.3,0.4,1.8,0.6v5.4L412.1,39.6z"/>
	<path class="st0" d="M444.9,18.7c-0.4-0.2-0.8-0.3-1.2-0.5c-1.1-0.4-2.1-0.6-3.2-0.8c-1-0.2-1.9-0.3-2.6-0.3
		c-4.4,0-7.7,1.3-9.8,3.9c-2.2,2.6-3.2,6.1-3.2,10.5s0.4,5.7,1.2,7.7s1.8,3.5,3.2,4.6c1.3,1.1,2.8,1.9,4.5,2.3
		c1.6,0.4,3.3,0.6,5,0.6s2.8-0.1,4.2-0.4c1.4-0.3,2.7-0.7,3.9-1.2c1.2-0.5,2.2-1.2,2.9-2.1c0.7-0.9,1.1-1.9,1.1-3V6.1h-5.8v12.7
		L444.9,18.7z M444.9,39.4c0,0.7-0.6,1.2-1.8,1.6c-1.2,0.4-2.6,0.6-4.3,0.6s-3.8-0.4-5-1.3c-1.2-0.9-2-2.1-2.4-3.6s-0.7-3.2-0.7-5.1
		s0.3-3.8,0.8-5.2c0.6-1.4,1.4-2.5,2.6-3.2s2.7-1.1,4.5-1.1s2.1,0.1,3.1,0.4c1.1,0.3,2.1,0.7,3.1,1.2L444.9,39.4L444.9,39.4z"/>
	<path class="st0" d="M477.6,18.7c-0.4-0.2-0.8-0.3-1.2-0.5c-1.1-0.4-2.1-0.6-3.2-0.8c-1-0.2-1.9-0.3-2.6-0.3
		c-4.4,0-7.7,1.3-9.8,3.9c-2.2,2.6-3.2,6.1-3.2,10.5s0.4,5.7,1.2,7.7s1.8,3.5,3.2,4.6c1.3,1.1,2.8,1.9,4.5,2.3
		c1.6,0.4,3.3,0.6,5,0.6s2.8-0.1,4.2-0.4c1.4-0.3,2.7-0.7,3.9-1.2c1.2-0.5,2.2-1.2,2.9-2.1c0.7-0.9,1.1-1.9,1.1-3V6.1h-5.8v12.7
		L477.6,18.7z M477.6,39.4c0,0.7-0.6,1.2-1.8,1.6c-1.2,0.4-2.6,0.6-4.3,0.6s-3.8-0.4-5-1.3c-1.2-0.9-2-2.1-2.4-3.6s-0.7-3.2-0.7-5.1
		s0.3-3.8,0.8-5.2c0.6-1.4,1.4-2.5,2.6-3.2s2.7-1.1,4.5-1.1s2.1,0.1,3.1,0.4c1.1,0.3,2.1,0.7,3.1,1.2L477.6,39.4L477.6,39.4z"/>
	<rect x="491.7" y="8" class="st0" width="6.3" height="5.3"/>
	<polygon class="st0" points="491.9,18 491.9,45.9 497.8,45.9 497.8,18 	"/>
</g>
</svg>
