<?xml version="1.0" encoding="UTF-8"?>
<svg id="uuid-7b270302-3bad-4429-bcb6-a44dcf6f558e" style="border-radius: 3px;" data-name="Layer 1" xmlns="http://www.w3.org/2000/svg" viewBox="0 0 500 500">
  <path d="M0,0V500H500V0H0ZM314.1,445.7c-10,2-13.8-4.3-13.8-9.5s.2-28.4,.2-55.3-6.3-30.9-13.6-37.2c44.7-5,91.7-22.1,91.7-99.2s-7.8-40-20.6-54c2-5,9-25.6-2-53.3,0,0-16.8-5.5-55.3,20.6-16.1-4.5-33.2-6.8-50.2-6.8s-34.2,2.3-50.2,6.8c-38.4-25.9-55.3-20.6-55.3-20.6-11.1,27.6-4,48.2-2,53.3-12.8,14.1-20.6,32.2-20.6,54,0,76.9,46.7,94.2,91.5,99.2-5.8,5-11.1,13.8-12.8,26.9-11.6,5.3-40.5,13.8-58.5-16.6-3.8-6-15.1-20.9-30.9-20.6-16.8,.2-6.8,9.5,.2,13.3,8.5,4.8,18.3,22.6,20.6,28.4,4,11.3,17.1,32.9,67.6,23.6,0,16.8,.2,32.7,.2,37.4s-3.8,11.3-13.8,9.5c-79.9-26.6-137.4-101.8-137.4-190.7S139,54,250,54s201,90,201,201c0,86.4-55.1,163.1-136.9,190.7Z" style="fill: #0284c7;"/>
</svg>